<?xml version="1.0" standalone="no"?>
<!DOCTYPE svg PUBLIC "-//W3C//DTD SVG 20010904//EN"
 "http://www.w3.org/TR/2001/REC-SVG-20010904/DTD/svg10.dtd">
<svg version="1.0" xmlns="http://www.w3.org/2000/svg"
 width="413.000000pt" height="470.000000pt" viewBox="0 0 413.000000 470.000000"
 preserveAspectRatio="xMidYMid meet">

<g transform="translate(0.000000,470.000000) scale(0.100000,-0.100000)"
fill="#000000" stroke="none">
<path d="M1924 4485 c-40 -31 -61 -99 -47 -153 25 -97 179 -302 228 -302 31 0
92 47 156 121 78 90 96 119 110 172 23 95 -13 165 -92 174 -40 5 -50 1 -93
-32 l-48 -37 -32 30 c-42 40 -68 52 -113 52 -25 0 -49 -9 -69 -25z"/>
<path d="M856 4105 c-40 -21 -53 -41 -67 -101 l-11 -50 -52 4 c-94 8 -156 -42
-156 -125 1 -80 72 -139 225 -187 111 -36 186 -43 208 -22 28 29 40 96 41 231
1 125 0 132 -27 178 -44 75 -105 102 -161 72z"/>
<path d="M3250 4007 c-65 -43 -75 -74 -75 -237 0 -166 12 -216 52 -226 38 -10
119 3 221 35 142 44 202 101 202 193 0 39 -4 50 -31 72 -26 23 -40 26 -100 26
-65 0 -69 1 -69 23 -1 34 -35 102 -61 121 -34 23 -99 20 -139 -7z"/>
<path d="M2654 3956 c-122 -83 -203 -191 -319 -428 -91 -188 -135 -249 -199
-273 -39 -15 -50 -16 -76 -5 -54 22 -113 102 -200 271 -92 178 -146 256 -218
320 -51 45 -162 123 -167 117 -2 -1 19 -32 46 -68 175 -229 323 -572 389 -900
41 -200 50 -356 50 -846 l0 -422 33 -13 c34 -15 180 -18 230 -6 l27 7 0 243
c1 556 35 1083 81 1241 70 242 196 525 313 699 35 53 64 97 63 97 -1 0 -25
-15 -53 -34z"/>
<path d="M2015 3832 c-68 -32 -105 -94 -105 -175 0 -167 158 -272 275 -183 52
40 69 80 70 161 0 59 -4 78 -27 117 -50 83 -136 116 -213 80z"/>
<path d="M1498 3703 c-41 -88 -76 -184 -108 -298 -6 -22 -15 -141 -19 -265 -9
-252 -17 -288 -70 -309 -69 -29 -162 10 -307 131 -120 99 -214 168 -274 198
-50 25 -150 60 -173 60 -5 0 45 -52 111 -115 122 -117 302 -317 435 -483 156
-195 281 -407 361 -615 36 -91 39 -96 79 -112 60 -24 134 -72 192 -126 44 -41
57 -47 108 -52 31 -3 57 -4 57 -1 0 3 -22 54 -50 114 -95 209 -134 314 -238
655 -84 271 -96 321 -116 480 -31 231 -18 467 39 718 13 61 23 112 21 114 -1
2 -23 -41 -48 -94z"/>
<path d="M2654 3620 c3 -30 11 -154 17 -276 13 -247 7 -348 -36 -570 -46 -239
-91 -381 -254 -797 -56 -143 -101 -261 -101 -263 0 -2 10 -4 23 -4 13 0 36 14
53 31 45 49 157 124 229 154 l65 28 77 136 c228 405 380 636 507 768 151 159
325 297 471 375 53 28 64 38 45 38 -52 0 -158 -22 -225 -47 -139 -52 -158 -64
-361 -246 -119 -108 -183 -147 -241 -147 -33 0 -46 5 -66 29 -37 44 -47 104
-56 336 -6 136 -15 231 -25 270 -20 73 -66 170 -101 210 l-26 30 5 -55z"/>
<path d="M1082 3392 c-104 -32 -149 -171 -91 -282 26 -50 40 -65 79 -89 44
-26 113 -28 160 -2 109 58 104 267 -8 344 -39 28 -102 40 -140 29z"/>
<path d="M3003 3369 c-68 -33 -113 -113 -113 -200 0 -65 18 -107 65 -148 36
-31 42 -33 100 -29 78 5 122 35 159 110 50 101 24 218 -60 265 -49 28 -97 29
-151 2z"/>
<path d="M346 3198 c-8 -13 -20 -44 -26 -70 -11 -44 -10 -49 14 -80 52 -69 65
-116 81 -299 24 -282 24 -279 46 -279 24 0 24 5 -2 154 -16 94 -21 167 -22
325 l0 204 -30 34 c-34 39 -42 40 -61 11z"/>
<path d="M215 3053 c-3 -10 -3 -94 0 -188 6 -141 3 -197 -14 -327 l-21 -158
21 -52 c11 -28 58 -124 103 -212 46 -89 110 -233 142 -320 58 -156 60 -160
109 -197 69 -52 240 -158 441 -274 93 -54 190 -113 215 -131 92 -67 159 -203
159 -324 0 -44 -4 -59 -15 -62 -26 -5 13 -62 80 -114 201 -156 427 -277 570
-306 93 -18 210 19 405 130 114 65 295 190 344 238 40 39 48 69 16 59 -18 -6
-20 -2 -20 42 0 64 24 154 57 216 39 70 114 134 244 207 145 81 400 237 493
303 l72 50 68 181 c40 106 101 241 146 326 112 209 116 220 100 327 -7 49 -16
203 -19 343 -6 251 -6 255 -28 258 -33 5 -89 -51 -112 -113 -14 -38 -25 -112
-37 -265 l-18 -212 22 -17 c31 -23 43 -65 33 -110 -14 -65 -154 -257 -291
-401 -45 -47 -109 -121 -142 -165 -33 -44 -70 -91 -82 -105 -27 -31 -75 -71
-60 -50 100 140 230 304 298 379 103 111 223 276 243 332 11 34 11 45 0 67
-12 25 -17 27 -72 26 -44 -1 -76 -9 -120 -29 -61 -29 -87 -53 -342 -318 -55
-58 -115 -113 -133 -122 -19 -10 -76 -20 -146 -26 -243 -19 -388 -78 -533
-214 -212 -199 -281 -397 -265 -759 5 -130 3 -154 -25 -305 -29 -157 -35 -180
-46 -170 -14 14 -47 346 -55 544 -9 247 -23 330 -75 438 -59 127 -230 306
-350 369 -103 54 -222 85 -370 97 -156 12 -161 15 -319 185 -196 210 -231 242
-301 277 -74 36 -165 50 -190 29 -20 -16 -19 -73 1 -113 30 -59 165 -236 246
-324 85 -92 294 -363 280 -363 -12 0 -62 56 -132 148 -34 46 -108 132 -164
191 -99 105 -208 248 -253 332 -33 61 -31 114 6 149 l30 27 -15 174 c-24 286
-33 327 -94 388 -35 34 -74 41 -85 14z"/>
<path d="M454 2948 c3 -24 8 -77 11 -118 8 -107 46 -353 56 -364 13 -14 11 12
-11 159 -11 72 -20 176 -20 232 0 110 -5 133 -27 133 -11 0 -13 -10 -9 -42z"/>
<path d="M1428 127 c-2 -20 -1 -42 3 -48 9 -15 17 44 9 67 -5 14 -8 9 -12 -19z"/>
<path d="M1992 115 c-1 -40 1 -46 9 -32 10 18 11 18 25 0 7 -10 14 -13 14 -6
0 6 -4 14 -10 18 -5 3 -6 13 -3 23 6 15 4 15 -9 4 -14 -12 -17 -10 -21 15 -2
16 -4 8 -5 -22z"/>
<path d="M2474 146 c-3 -8 -3 -19 0 -25 4 -5 2 -12 -3 -16 -17 -10 0 -35 25
-35 22 0 24 4 21 42 -1 32 -7 44 -20 46 -9 2 -20 -3 -23 -12z m36 -11 c0 -8
-7 -15 -15 -15 -8 0 -15 7 -15 15 0 8 7 15 15 15 8 0 15 -7 15 -15z m0 -40 c0
-8 -7 -15 -15 -15 -8 0 -15 7 -15 15 0 8 7 15 15 15 8 0 15 -7 15 -15z"/>
<path d="M2550 145 c-17 -20 -5 -45 20 -45 12 0 18 -4 15 -10 -4 -6 -16 -8
-28 -4 -17 5 -19 3 -11 -6 22 -22 49 -7 52 29 5 45 -23 66 -48 36z m36 -6 c10
-17 -13 -36 -27 -22 -12 12 -4 33 11 33 5 0 12 -5 16 -11z"/>
<path d="M2630 149 c-12 -8 -10 -9 8 -4 29 8 31 -20 2 -35 -30 -16 -25 -40 8
-39 23 2 24 2 5 6 -29 5 -30 20 -2 28 13 5 19 14 17 28 -4 24 -17 31 -38 16z"/>
<path d="M2701 133 c1 -23 2 -24 6 -6 2 12 12 24 21 26 12 3 10 5 -5 6 -19 1
-23 -4 -22 -26z"/>
<path d="M2775 150 c-3 -5 0 -7 8 -4 25 9 31 -16 8 -32 -30 -22 -27 -44 7 -43
23 2 24 2 5 6 -28 5 -29 10 -1 32 13 11 19 24 15 34 -7 19 -32 23 -42 7z"/>
<path d="M2854 152 c-5 -4 -10 -23 -10 -42 1 -31 4 -35 26 -35 21 0 25 5 25
30 1 44 -17 64 -41 47z m31 -11 c7 -12 -12 -24 -25 -16 -11 7 -4 25 10 25 5 0
11 -4 15 -9z m3 -43 c-3 -7 -11 -13 -18 -13 -7 0 -15 6 -17 13 -3 7 4 12 17
12 13 0 20 -5 18 -12z"/>
<path d="M2927 153 c-4 -3 -7 -15 -7 -25 0 -15 5 -18 20 -13 16 5 20 2 20 -15
0 -18 -4 -21 -21 -17 -16 4 -19 3 -11 -5 6 -6 18 -8 27 -4 22 8 16 51 -8 50
-24 -2 -21 15 6 26 21 8 21 9 1 9 -11 1 -24 -2 -27 -6z"/>
<path d="M3003 153 c13 -3 17 -11 13 -24 -16 -51 -15 -60 3 -24 26 53 26 55
-6 54 -19 -1 -22 -3 -10 -6z"/>
<path d="M1568 139 c-6 -17 3 -69 11 -69 7 0 6 69 -2 76 -3 3 -7 0 -9 -7z"/>
<path d="M1608 138 c-7 -21 6 -61 22 -66 13 -3 13 -2 1 6 -8 6 -12 19 -9 30 7
24 -6 51 -14 30z"/>
<path d="M1818 138 c-7 -21 6 -61 22 -66 13 -3 13 -2 1 6 -8 6 -12 19 -9 30 7
24 -6 51 -14 30z"/>
<path d="M1871 130 c-7 -4 -11 -18 -9 -31 5 -35 42 -33 46 2 3 28 -16 43 -37
29z m29 -31 c0 -10 -7 -19 -15 -19 -15 0 -21 31 -9 43 11 10 24 -3 24 -24z"/>
<path d="M1942 131 c-21 -13 -11 -55 13 -58 17 -2 17 -1 2 3 -21 7 -20 51 1
46 8 -1 11 2 7 8 -7 12 -7 12 -23 1z"/>
<path d="M2091 127 c-16 -16 -14 -47 5 -54 8 -3 20 -1 26 5 7 7 4 10 -8 9 -13
-1 -19 5 -19 18 0 14 6 19 18 17 20 -3 23 4 3 11 -7 3 -19 0 -25 -6z"/>
<path d="M1081 115 c0 -11 4 -27 9 -35 7 -12 11 -10 19 10 9 24 10 24 10 3 1
-13 6 -23 12 -23 6 0 8 9 4 23 -11 35 -22 41 -31 16 l-8 -24 -7 25 c-6 20 -7
21 -8 5z"/>
<path d="M1141 114 c0 -11 3 -14 6 -6 3 7 2 16 -1 19 -3 4 -6 -2 -5 -13z"/>
<path d="M1165 116 c17 -53 16 -52 32 -23 8 16 12 31 9 34 -3 3 -10 -5 -15
-18 -7 -16 -10 -19 -10 -7 -1 9 -5 20 -11 23 -5 3 -8 -1 -5 -9z"/>
<path d="M1256 110 c3 -14 10 -29 15 -35 14 -15 10 7 -7 35 l-15 25 7 -25z"/>
<path d="M1280 115 c0 -8 5 -15 10 -15 6 0 10 7 10 15 0 8 -4 15 -10 15 -5 0
-10 -7 -10 -15z"/>
<path d="M1311 104 c-6 -15 -9 -29 -7 -32 3 -2 10 8 16 23 14 36 7 43 -9 9z"/>
<path d="M1370 124 c0 -4 8 -16 18 -27 16 -19 16 -20 0 -14 -10 4 -18 2 -18
-3 0 -13 27 -13 35 1 4 6 -2 19 -14 30 -12 11 -21 17 -21 13z"/>
<path d="M1464 105 c7 -37 16 -44 16 -12 0 14 -5 29 -10 32 -7 4 -9 -3 -6 -20z"/>
<path d="M1493 105 c2 -23 7 -31 25 -33 19 -3 22 1 21 30 -2 31 -2 31 -6 5 -5
-33 -24 -31 -35 4 -6 22 -7 21 -5 -6z"/>
<path d="M1654 115 c-13 -32 24 -63 41 -35 3 5 0 7 -8 4 -8 -3 -18 -1 -22 5
-3 7 2 11 14 11 12 0 21 7 21 15 0 8 -5 15 -11 15 -5 0 -7 -4 -4 -10 3 -5 -1
-10 -10 -10 -9 0 -13 5 -10 10 3 6 4 10 0 10 -3 0 -8 -7 -11 -15z"/>
<path d="M1721 98 c2 -28 2 -29 6 -8 3 14 10 28 17 32 7 5 5 8 -6 8 -14 0 -18
-8 -17 -32z"/>
<path d="M1760 120 c0 -6 7 -13 15 -16 8 -4 15 -11 15 -16 0 -6 -7 -7 -16 -4
-8 3 -12 2 -9 -4 9 -14 35 -12 35 3 0 7 -9 20 -20 30 -11 9 -20 12 -20 7z"/>
<path d="M2145 120 c-11 -17 6 -50 25 -50 22 0 37 37 21 53 -9 9 -11 5 -9 -13
2 -17 -2 -25 -12 -25 -10 0 -14 8 -12 23 3 23 -3 29 -13 12z"/>
<path d="M2210 98 c0 -36 4 -35 14 5 4 16 2 27 -4 27 -5 0 -10 -14 -10 -32z"/>
<path d="M2248 100 c2 -17 5 -30 7 -30 2 0 5 13 7 30 3 19 0 30 -7 30 -7 0
-10 -11 -7 -30z"/>
<path d="M2288 100 c6 -39 12 -39 12 0 0 17 -4 30 -8 30 -5 0 -7 -13 -4 -30z"/>
<path d="M2728 117 c18 -21 6 -39 -21 -31 -17 5 -19 3 -11 -6 7 -6 20 -10 30
-8 23 4 26 49 4 56 -13 4 -13 3 -2 -11z"/>
<path d="M1210 85 c0 -8 5 -15 10 -15 6 0 10 7 10 15 0 8 -4 15 -10 15 -5 0
-10 -7 -10 -15z"/>
</g>
</svg>
